<?xml version="1.0" encoding="iso-8859-1"?>
<!-- Generator: Adobe Illustrator 19.0.0, SVG Export Plug-In . SVG Version: 6.00 Build 0)  -->
<svg xmlns="http://www.w3.org/2000/svg" xmlns:xlink="http://www.w3.org/1999/xlink" version="1.1" id="Layer_1" x="0px" y="0px" viewBox="0 0 512 512" style="enable-background:new 0 0 512 512;" xml:space="preserve" width="512px" height="512px">
<g>
	<g>
		<path d="M490.656,117.336H512L490.656,32H21.336L0,117.336h21.336V416H0v64h512v-64h-21.344V117.336z M37.992,53.336H474    L484.688,96H27.32L37.992,53.336z M170.664,245.336V288v106.656V416h-128V117.336h426.68V416h-128v-21.344V288v-42.664H170.664z     M320,394.656v21H192v-21H320z M192,373.345v-54.876c15.609,4.984,35.203,10.125,53.336,11.688v43.188H192z M266.664,373.344    v-43.188c18.133-1.563,37.727-6.703,53.336-11.688v54.876H266.664z M256,309.344c-20.609,0-46.234-7.281-64-13.344v-29.336h128    V296C302.234,302.063,276.609,309.344,256,309.344z M490.656,458.656H21.336v-21.313h469.32V458.656z" fill="#d5275a"/>
	</g>
</g>
<g>
	<g>
		<path d="M362.656,245.336v85.32H448v-85.32H362.656z M426.656,309.344H384v-42.68h42.656V309.344z" fill="#d5275a"/>
	</g>
</g>
<g>
	<g>
		<path d="M64,245.336v85.32h85.336v-85.32H64z M128,309.344H85.336v-42.68H128V309.344z" fill="#d5275a"/>
	</g>
</g>
<g>
	<g>
		<path d="M255.953,138.664C143.344,138.664,106.617,160,106.617,160v64h298.664v-64C405.281,160,368.562,138.664,255.953,138.664z     M383.953,202.664h-256v-28.242c4.758-1.523,11.18-3.32,19.492-5.102c19.844-4.25,54.773-9.32,108.508-9.32    s88.672,5.07,108.516,9.32c8.297,1.781,14.719,3.578,19.484,5.102V202.664z" fill="#d5275a"/>
	</g>
</g>
<g>
</g>
<g>
</g>
<g>
</g>
<g>
</g>
<g>
</g>
<g>
</g>
<g>
</g>
<g>
</g>
<g>
</g>
<g>
</g>
<g>
</g>
<g>
</g>
<g>
</g>
<g>
</g>
<g>
</g>
</svg>
